<?xml version="1.0" encoding="utf-8"?>
<!-- Generator: Adobe Illustrator 21.0.2, SVG Export Plug-In . SVG Version: 6.00 Build 0)  -->
<svg version="1.1" id="Capa_1" xmlns="http://www.w3.org/2000/svg" xmlns:xlink="http://www.w3.org/1999/xlink" x="0px" y="0px"
	 viewBox="0 0 512 512" style="enable-background:new 0 0 512 512;" xml:space="preserve">
<g>
	<g>
		<path d="M449.5,61.1H62.6C28,61.1,0,89.1,0,123.7v264.8c0,34.6,28,62.6,62.6,62.6h386.8c34.6,0,62.6-28,62.6-62.6V123.9
			C512.1,89.3,484,61.1,449.5,61.1z M484.1,388.1c0,18.7-15.3,34-34,34H63c-18.8,0-34-15.2-34-34v-264c0-18.8,15.2-34,34-34h387
			c18.8,0,34,15.2,34,34v264H484.1z"/>
		<path d="M322.9,252.8l125.2-112.3c5.8-5.3,6.4-14.3,1.1-20.2c-5.3-5.8-14.3-6.4-20.2-1.1l-172.7,155l-33.7-30.1
			c-0.1-0.1-0.2-0.2-0.2-0.3c-0.7-0.7-1.5-1.4-2.3-2L82.9,119.1c-5.9-5.3-14.9-4.8-20.2,1.2s-4.8,14.9,1.2,20.2l126.7,113.2
			L64.4,371.9c-5.7,5.4-6,14.4-0.6,20.2c2.9,3,6.7,4.6,10.5,4.6c3.5,0,7-1.3,9.7-3.8L212.1,273l34.7,31c2.8,2.4,6.1,3.6,9.5,3.6
			c3.4,0,6.9-1.3,9.5-3.7l35.7-32l127.3,121c2.8,2.6,6.4,3.9,9.9,3.9c3.8,0,7.5-1.5,10.4-4.4c5.4-5.7,5.2-14.8-0.5-20.2L322.9,252.8
			z"/>
	</g>
</g>
</svg>
