<?xml version="1.0" encoding="utf-8"?>
<!-- Generator: Adobe Illustrator 21.0.2, SVG Export Plug-In . SVG Version: 6.00 Build 0)  -->
<svg version="1.1" id="Capa_1" xmlns="http://www.w3.org/2000/svg" xmlns:xlink="http://www.w3.org/1999/xlink" x="0px" y="0px"
	 viewBox="0 0 294.1 294.1" style="enable-background:new 0 0 294.1 294.1;" xml:space="preserve">
<g>
	<path d="M291.9,249.2L236,193.3c-1.4-1.4-3.3-2.2-5.3-2.2c-1.7,0-3.3,0.6-4.6,1.6l-36.5-36.5c9.5-15.6,15.1-33.8,15.1-53.4
		c0-56.4-45.9-102.4-102.3-102.4C45.9,0.5,0,46.4,0,102.8c0,56.4,45.9,102.4,102.3,102.4c20,0,38.7-5.8,54.5-15.8l36.3,36.3
		c-2.2,2.9-2,7.1,0.7,9.8l55.9,55.9c1.4,1.4,3.3,2.2,5.3,2.2c2,0,3.9-0.8,5.3-2.2l31.5-31.5C294.8,256.9,294.8,252.2,291.9,249.2z
		 M15,102.8c0-48.2,39.2-87.4,87.3-87.4s87.3,39.2,87.3,87.4c0,48.2-39.2,87.4-87.3,87.4S15,151,15,102.8z M180.7,168.5l34.7,34.7
		L203.7,215l-34.6-34.7C173.3,176.7,177.1,172.8,180.7,168.5z M255,275.5l-45.3-45.3l20.9-20.9l45.3,45.3L255,275.5z"/>
</g>
</svg>
